<svg width="150" height="65" viewBox="0 0 150 65" fill="none" xmlns="http://www.w3.org/2000/svg">
<path opacity="0.8" d="M4.84701 0V19.0343L15.0796 12.7709H21.4076L9.42475 20.0104L23.5619 29.6496H17.2338L6.05877 21.9627L4.84701 22.6948V29.6496H0V0H4.84701Z" fill="#A67C97"/>
<path opacity="0.8" d="M81.4568 12.7709H86.3038V29.6496H81.4568V27.2771C80.3481 28.1703 78.9072 28.8934 77.2505 29.3879C75.5938 29.8825 73.7677 30.1347 71.9199 30.1241C64.8513 30.1241 58.3213 27.1144 58.3213 21.1763C58.3213 15.3603 64.784 12.3642 71.9199 12.3642C73.7649 12.3379 75.5936 12.5789 77.2528 13.0672C78.912 13.5554 80.3536 14.2766 81.4568 15.1705V12.7709ZM63.2805 21.1899C63.2805 24.8097 66.6465 27.5347 72.436 27.5347C78.3601 27.5347 81.7261 24.5656 81.7261 21.2306C81.7261 16.8787 76.7444 14.9671 72.436 14.9671C67.6563 14.9671 63.2805 17.0821 63.2805 21.1899Z" fill="#A67C97"/>
<path opacity="0.8" d="M95.4592 12.7709H100.306V14.7231C101.239 13.9749 102.45 13.3702 103.842 12.9579C105.234 12.5457 106.767 12.3376 108.317 12.3506C111.616 12.3506 114.645 13.164 116.328 14.6689C117.742 15.9297 117.938 17.3125 117.938 19.1834V29.636H113.097V19.2885C113.097 18.2717 112.962 17.0922 111.818 16.1975C110.875 15.4654 109.394 14.9773 107.24 14.9773C106.311 14.954 105.385 15.0591 104.534 15.2847C103.682 15.5102 102.927 15.8502 102.326 16.2788C100.441 17.6345 100.306 19.6139 100.306 20.834V29.6462H95.4592V12.7709Z" fill="#A67C97"/>
<path opacity="0.8" d="M127.094 0H131.941V14.7231C132.873 13.9749 134.085 13.3702 135.477 12.9579C136.869 12.5457 138.402 12.3376 139.952 12.3506C143.251 12.3506 146.28 13.164 147.963 14.6689C149.377 15.9297 149.579 17.3126 149.579 19.1834V29.636H144.732V19.2885C144.732 18.2717 144.597 17.0922 143.453 16.1975C142.51 15.4654 141.029 14.9773 138.875 14.9773C137.947 14.9538 137.022 15.0588 136.171 15.2844C135.32 15.5099 134.566 15.8501 133.966 16.2788C132.076 17.6345 131.941 19.6139 131.941 20.834V29.6462H127.094V0Z" fill="#A67C97"/>
<path opacity="0.8" d="M25.0823 38.3737C23.2488 38.3645 21.4361 38.609 19.783 39.0883C18.13 39.5677 16.6804 40.2693 15.5454 41.1393V38.7668H10.704V65H15.551V53.3001C16.6864 54.2092 18.1642 54.9417 19.8618 55.4368C21.5594 55.9319 23.4279 56.1754 25.3123 56.1471C33.7946 56.1471 38.709 51.958 38.709 47.335C38.6809 42.7662 33.8339 38.3737 25.0823 38.3737ZM24.6111 53.5442C18.8889 53.5442 15.2537 50.7378 15.2537 47.2807C15.2537 43.2136 20.0334 40.9766 24.5438 40.9766C29.0542 40.9766 33.7049 43.1729 33.7049 47.3214C33.7049 50.6971 30.2659 53.5442 24.6111 53.5442Z" fill="#A67C97"/>
<path opacity="0.8" d="M58.9496 38.3737C57.3996 38.3607 55.8663 38.5687 54.4744 38.981C53.0824 39.3932 51.871 39.998 50.9386 40.7462V26.0095H50.8993V19.197C50.8993 17.3261 50.6974 15.9433 49.2836 14.6825C47.6007 13.1776 44.5713 12.3642 41.2726 12.3642C39.7226 12.3512 38.1893 12.5592 36.7973 12.9715C35.4054 13.3837 34.194 13.9885 33.2616 14.7367V0H28.4146V29.6496H33.2616V20.8374C33.2616 19.6173 33.3962 17.6244 35.2812 16.2822C35.8823 15.8536 36.6375 15.5136 37.4892 15.2881C38.3408 15.0625 39.2664 14.9574 40.1955 14.9807C42.3497 14.9807 43.8307 15.4688 44.7732 16.2009C45.8952 17.0956 46.0523 18.2751 46.0523 19.2919V29.6632H46.0916V55.6727H50.9386V46.8605C50.9386 45.6403 51.0732 43.6474 52.9582 42.3053C53.5594 41.8767 54.3145 41.5367 55.1662 41.3111C56.0178 41.0856 56.9434 40.9804 57.8725 41.0038C60.0267 41.0038 61.5078 41.4918 62.4502 42.2239C63.5722 43.1187 63.7237 44.2982 63.7237 45.315V55.6862H68.5707V45.2065C68.5707 43.3356 68.3688 41.9528 66.9551 40.6919C65.2721 39.1871 62.2427 38.3737 58.9496 38.3737Z" fill="#FF80D4"/>
<path opacity="0.8" d="M99.1282 41.18C98.0249 40.2861 96.5834 39.5649 94.9242 39.0767C93.2649 38.5884 91.4363 38.3474 89.5912 38.3737C82.4554 38.3737 75.9927 41.3834 75.9927 47.1858C75.9927 53.1239 82.5227 56.1336 89.5912 56.1336C91.4391 56.1442 93.2652 55.892 94.9219 55.3974C96.5786 54.9029 98.0195 54.1798 99.1282 53.2866V55.6591H103.975V38.7804H99.1282V41.18ZM90.1074 53.5442C84.3179 53.5442 80.9519 50.8327 80.9519 47.1994C80.9519 43.0916 85.3277 40.9766 90.1074 40.9766C94.4158 40.9766 99.3975 42.8882 99.3975 47.2401C99.3975 50.5751 96.0315 53.5442 90.1074 53.5442Z" fill="#A67C97"/>
<path opacity="0.8" d="M140.934 38.3737C139.257 38.3261 137.59 38.5529 136.109 39.0302C134.628 39.5074 133.388 40.2174 132.519 41.0851C131.796 40.2493 130.7 39.5525 129.356 39.0733C128.012 38.5941 126.472 38.3518 124.912 38.3737C123.543 38.3565 122.19 38.5489 120.977 38.933C119.765 39.317 118.733 39.8801 117.978 40.5699V38.7804H113.131V55.6591H117.978V46.4673C117.978 44.4337 118.584 40.9766 124.104 40.9766C129.22 40.9766 129.153 44.4744 129.153 45.6539V55.6591H134V46.2639C134 44.2304 134.606 40.9766 140.171 40.9766C144.749 40.9766 145.153 43.4983 145.153 45.4098V55.6591H150V44.9625C150.022 42.5628 149.214 38.3737 140.934 38.3737Z" fill="#A67C97"/>
</svg>
